# xmcd CD database file
#
# Track frame offsets:
#	150
#	24464
#	45438
#	69066
#	109632
#	132316
#	156442
#	172144
#	188945
#	204858
#	229605
#
# Disc length: 3411 seconds
#
# Revision: 0
# Processed by: cddbd v1.5PL3 Copyright (c) Steve Scherf et al.
# Submitted via: CDex 1.51
#
DISCID=8a0d510b
DTITLE=Hikari no kuni, Kokage no hana - Sojiro
DYEAR=1995
DGENRE=New Age
TTITLE0=(Japanese Title)
TTITLE1=(Japanese Title)
TTITLE2=(Japanese Title)
TTITLE3=(Japanese Title)
TTITLE4=(Japanese Title)
TTITLE5=(Japanese Title)
TTITLE6=(Japanese Title)
TTITLE7=(Japanese Title)
TTITLE8=(Japanese Title)
TTITLE9=(Japanese Title)
TTITLE10=(Japanese Title)
EXTD=YEAR: 1995
EXTT0=
EXTT1=
EXTT2=
EXTT3=
EXTT4=
EXTT5=
EXTT6=
EXTT7=
EXTT8=
EXTT9=
EXTT10=
PLAYORDER=
